<svg height="758" width="1179" xmlns="http://www.w3.org/2000/svg"><g fill="none"><g stroke="#fff"><path d="M487.347 170v140.309l358.666 155.898V325.899z"/><path d="M467.347 190v140.309l358.666 155.898V345.899z" opacity=".8"/><path d="M447.347 210v140.309l358.666 155.898V365.899z" opacity=".6"/><path d="M427.347 230v140.309l358.666 155.898V385.899z" opacity=".4"/></g><path d="M457.335 348v140.309l358.666 155.898V503.899z" fill="#fff"/><g stroke="#fff"><path d="M307.347 348v140.309l358.666 155.898V503.899z"/><path d="M206 461v140.309l358.667 155.898V616.899z" opacity=".8"/><path d="M61 315v140.309l358.667 155.898V470.899z" opacity=".6"/><path d="M1 171v140.309l358.667 155.898V326.899z" opacity=".4"/></g><g stroke="#fff"><path d="M697 653.731L845.39 724l140.58-62.462V521z"/><path d="M731 553.731L879.39 624l140.58-62.462V421z" opacity=".8"/><path d="M828 533.731L976.39 604l140.58-62.462V401z" opacity=".6"/><path d="M794 424.731L942.39 495l140.58-62.462V292z" opacity=".4"/><path d="M889 334.731L1037.39 405l140.58-62.462V202z" opacity=".2"/></g><path d="M528.03 308.731L676.42 379 817 316.538V176z" fill="#fab745" opacity=".9"/><g stroke="#fff"><path d="M378 308.731L526.39 379l140.58-62.462V176z"/><path d="M398 277.731L546.39 348l140.58-62.462V145z" opacity=".8"/><path d="M418 247.731L566.39 318l140.58-62.462V115z" opacity=".6"/><path d="M438 217.731L586.39 288l140.58-62.462V85z" opacity=".4"/><path d="M212 133.731L360.39 204l140.58-62.462V1z" opacity=".2"/></g></g></svg>