<svg height="58" width="70" xmlns="http://www.w3.org/2000/svg"><g fill="none" fill-rule="evenodd"><path d="M-5-11h71v72H-5z"/><g stroke-width="1.613" transform="translate(-5 -11)"><rect height="48" rx="2" stroke="#252528" stroke-linecap="round" width="47" x="12" y="12"/><path d="M59.215 17h5.459c.882 0 1.598.733 1.598 1.636v1.481c0 1.194 3.329 0 3.329 3.701 0 3.7-3.33 3.308-3.33 4.803v2.191c0 1.028 3.729.05 3.729 3.96s-3.728 4.67-3.728 6.166v2.064c0 1.184 3.728 2.782 3.728 5.277 0 3.455-3.728 4.28-3.728 5.812v9.273c0 .903-.716 1.636-1.598 1.636H22.598C21.715 65 21 64.267 21 63.364v-3.137" stroke="#8a8a8e" stroke-dasharray=".081 3.226" stroke-linecap="round" stroke-linejoin="round"/><path d="M60.223 13l8.374.545c.895 0 1.621.731 1.621 1.633v4.746c0 1.192 3.377 0 3.377 3.695 0 3.694-3.377 3.302-3.377 4.795v2.187c0 1.027 3.782.05 3.782 3.953s-3.782 4.664-3.782 6.156v2.061c0 1.182 3.782 2.777 3.782 5.268 0 3.45-3.782 4.272-3.782 5.803v12.524c0 .903-.726 1.634-1.62 1.634H18.62c-.894 0-1.62-.731-1.62-1.634v-6.398" stroke="#8a8a8e" stroke-dasharray=".081 3.226" stroke-linecap="round" stroke-linejoin="round"/><path d="M26 27h18v18H26z" stroke="#e67e37" stroke-linejoin="round"/><path d="M59 21h5a1 1 0 0 1 1 1v4a1 1 0 0 1-1 1h-5zm0 12h5a1 1 0 0 1 1 1v4a1 1 0 0 1-1 1h-5zm0 12h5a1 1 0 0 1 1 1v4a1 1 0 0 1-1 1h-5zM7 21h5v6H7a1 1 0 0 1-1-1v-4a1 1 0 0 1 1-1zm0 12h5v6H7a1 1 0 0 1-1-1v-4a1 1 0 0 1 1-1zm0 12h5v6H7a1 1 0 0 1-1-1v-4a1 1 0 0 1 1-1z" stroke="#252528" stroke-linecap="round"/></g></g></svg>