<?xml version="1.0" encoding="utf-8"?><svg xmlns="http://www.w3.org/2000/svg" xmlns:xlink="http://www.w3.org/1999/xlink"><symbol viewBox="0 0 16 16" id="icon-arrow-left" xmlns="http://www.w3.org/2000/svg"><defs><path id="aa" d="M7.414 13l5.293 5.293a1 1 0 0 1-1.414 1.414l-7-7a1 1 0 0 1 0-1.414l7-7a1 1 0 0 1 1.414 1.414L7.414 11H19a1 1 0 0 1 0 2H7.414z"/></defs><use transform="translate(-4 -4)" xlink:href="#aa"/></symbol><symbol viewBox="0 0 16 16" id="icon-arrow-right" xmlns="http://www.w3.org/2000/svg"><defs><path id="ba" d="M16.586 11l-5.293-5.293a1 1 0 1 1 1.414-1.414l7 7a1 1 0 0 1 0 1.414l-7 7a1 1 0 0 1-1.414-1.414L16.586 13H5a1 1 0 0 1 0-2h11.586z"/></defs><use transform="translate(-4 -4)" xlink:href="#ba"/></symbol><symbol viewBox="0 0 8 14" id="icon-chevron-left" xmlns="http://www.w3.org/2000/svg"><defs><path id="ca" d="M15.7 17.3c.4.4.4 1 0 1.4-.2.2-.4.3-.7.3-.3 0-.5-.1-.7-.3l-6-6c-.4-.4-.4-1 0-1.4l6-6c.4-.4 1-.4 1.4 0 .4.4.4 1 0 1.4L10.4 12l5.3 5.3z"/></defs><use transform="translate(-8 -5)" xlink:href="#ca"/></symbol><symbol viewBox="0 0 14 14" id="icon-close" xmlns="http://www.w3.org/2000/svg"><defs><path id="da" d="M18.7 17.3c.4.4.4 1 0 1.4-.2.2-.4.3-.7.3-.3 0-.5-.1-.7-.3L12 13.4l-5.3 5.3c-.2.2-.4.3-.7.3-.3 0-.5-.1-.7-.3-.4-.4-.4-1 0-1.4l5.3-5.3-5.3-5.3c-.4-.4-.4-1 0-1.4.4-.4 1-.4 1.4 0l5.3 5.3 5.3-5.3c.4-.4 1-.4 1.4 0 .4.4.4 1 0 1.4L13.4 12l5.3 5.3z"/></defs><use transform="translate(-5 -5)" xlink:href="#da"/></symbol><symbol viewBox="0 0 22 18" id="icon-email" xmlns="http://www.w3.org/2000/svg"><defs><path id="ea" d="M20 3H4C2.3 3 1 4.3 1 6v12c0 1.7 1.3 3 3 3h16c1.7 0 3-1.3 3-3V6c0-1.7-1.3-3-3-3zM4 5h16c.4 0 .7.2.9.6L12 11.8 3.1 5.6c.2-.4.5-.6.9-.6zm16 14H4c-.6 0-1-.4-1-1V7.9l8.4 5.9c.2.1.4.2.6.2.2 0 .4-.1.6-.2L21 7.9V18c0 .6-.4 1-1 1z"/></defs><use transform="translate(-1 -3)" xlink:href="#ea"/></symbol><symbol viewBox="0 0 22 21" id="icon-linkedin" xmlns="http://www.w3.org/2000/svg"><defs><path id="fa" d="M16 8c-3.9 0-7 3.1-7 7v7c0 .6.4 1 1 1h4c.6 0 1-.4 1-1v-7c0-.6.4-1 1-1s1 .4 1 1v7c0 .6.4 1 1 1h4c.6 0 1-.4 1-1v-7c0-3.9-3.1-7-7-7zm5 13h-2v-6c0-1.7-1.3-3-3-3s-3 1.3-3 3v6h-2v-6c0-2.8 2.2-5 5-5s5 2.2 5 5v6zM6 9H2c-.6 0-1 .4-1 1v12c0 .6.4 1 1 1h4c.6 0 1-.4 1-1V10c0-.6-.4-1-1-1zM5 21H3V11h2v10zM4 2C2.3 2 1 3.3 1 5s1.3 3 3 3 3-1.3 3-3-1.3-3-3-3zm0 4c-.6 0-1-.4-1-1s.4-1 1-1 1 .4 1 1-.4 1-1 1z"/></defs><use transform="translate(-1 -2)" xlink:href="#fa"/></symbol><symbol viewBox="0 0 28 36" id="icon-small-logo" xmlns="http://www.w3.org/2000/svg"><g fill="#E97D26"><path opacity=".5" d="M17.231 15.48l-12.205-5.4L28 0v10.8z"/><path d="M0 12.96v10.8l27.742 11.985V25.2z"/></g></symbol><symbol viewBox="0 0 28 36" id="icon-small-logo-white" xmlns="http://www.w3.org/2000/svg"><g fill="#FFF"><path opacity=".5" d="M17.231 15.48l-12.205-5.4L28 0v10.8z"/><path d="M0 12.96v10.8l27.742 11.985V25.2z"/></g></symbol></svg>