<svg xmlns="http://www.w3.org/2000/svg" xmlns:xlink="http://www.w3.org/1999/xlink" width="22" height="21"><defs><path id="a" d="M16 8c-3.9 0-7 3.1-7 7v7c0 .6.4 1 1 1h4c.6 0 1-.4 1-1v-7c0-.6.4-1 1-1s1 .4 1 1v7c0 .6.4 1 1 1h4c.6 0 1-.4 1-1v-7c0-3.9-3.1-7-7-7zm5 13h-2v-6c0-1.7-1.3-3-3-3s-3 1.3-3 3v6h-2v-6c0-2.8 2.2-5 5-5s5 2.2 5 5v6zM6 9H2c-.6 0-1 .4-1 1v12c0 .6.4 1 1 1h4c.6 0 1-.4 1-1V10c0-.6-.4-1-1-1zM5 21H3V11h2v10zM4 2C2.3 2 1 3.3 1 5s1.3 3 3 3 3-1.3 3-3-1.3-3-3-3zm0 4c-.6 0-1-.4-1-1s.4-1 1-1 1 .4 1 1-.4 1-1 1z"/></defs><use transform="translate(-1 -2)" xlink:href="#a"/></svg>