<svg height="502" width="706" xmlns="http://www.w3.org/2000/svg"><g fill="none"><path d="M201 53v173.842L647 420V246.158z" fill="#e67e37"/><g stroke="#fab745"><path d="M466 1v174.117L184 284V109.883z"/><path d="M705 25v174.117L423 308V133.883z"/><path d="M138 134v173.842L584 501V327.158z"/><path d="M91 134v173.842L537 501V327.158z" opacity=".6"/><path d="M42 134v173.842L488 501V327.158z" opacity=".4"/><path d="M1 134v173.842L447 501V327.158z" opacity=".2"/></g><path d="M427.126 387.996l243.58-116.65v.987l-243.58 117.282zM566 465.3l36-15.3v1.7L566 467zm-287-166l36-15.3v1.7L279 301z" fill="#fff"/><path d="M71 374.3l36-15.3v1.7L71 376zm352-304L459 55v1.7L423 72z" fill="#e67e37" opacity=".5"/><path d="M346 304.483L382 290v22.517L346 327zm-89 105.911L393 354v14.606L257 425z" fill="#fab745"/><path d="M555 64.287L634 32v14.713L555 79z" fill="#e67e37" opacity=".5"/></g></svg>