<svg height="60" width="50" xmlns="http://www.w3.org/2000/svg"><g fill="none" fill-rule="evenodd" stroke-width="1.613"><path d="M4.032.968h34.87a3.226 3.226 0 0 1 3.227 3.226v8.064a3.226 3.226 0 0 1-3.226 3.226H4.032a3.226 3.226 0 0 1-3.226-3.226V4.194A3.226 3.226 0 0 1 4.032.968zm14.457 4.839c-.891 0-1.613.722-1.613 1.613v1.613c0 .89.722 1.612 1.613 1.612h12.844c.89 0 1.613-.722 1.613-1.612V7.42c0-.891-.722-1.613-1.613-1.613zm-8.5 4.838c1.268 0 2.295-1.083 2.295-2.419s-1.027-2.42-2.295-2.42-2.296 1.084-2.296 2.42c0 1.336 1.028 2.42 2.296 2.42z" fill="#fff" stroke="#e67e37" stroke-linejoin="round"/><path d="M4.032 18.71h34.87a3.226 3.226 0 0 1 3.227 3.226V30a3.226 3.226 0 0 1-3.226 3.226H4.032A3.226 3.226 0 0 1 .806 30v-8.064a3.226 3.226 0 0 1 3.226-3.226zm14.457 4.839c-.891 0-1.613.722-1.613 1.613v1.612c0 .891.722 1.613 1.613 1.613h12.844c.89 0 1.613-.722 1.613-1.613v-1.612c0-.891-.722-1.613-1.613-1.613zm-8.5 4.838c1.268 0 2.295-1.083 2.295-2.419s-1.027-2.42-2.295-2.42-2.296 1.084-2.296 2.42 1.028 2.42 2.296 2.42zm-5.957 8.065h34.87a3.226 3.226 0 0 1 3.227 3.226v8.064a3.226 3.226 0 0 1-3.226 3.226H4.032a3.226 3.226 0 0 1-3.226-3.226v-8.064a3.226 3.226 0 0 1 3.226-3.226zm14.457 4.839c-.891 0-1.613.722-1.613 1.612v1.613c0 .891.722 1.613 1.613 1.613h12.844c.89 0 1.613-.722 1.613-1.613v-1.613c0-.89-.722-1.612-1.613-1.612zm-8.5 4.838c1.268 0 2.295-1.083 2.295-2.42s-1.027-2.418-2.295-2.418-2.296 1.083-2.296 2.419 1.028 2.42 2.296 2.42z" stroke="#252528"/><g stroke="#8a8a8e" stroke-dasharray=".081 3.226" stroke-linecap="round" stroke-linejoin="round"><path d="M45.354 3.55V13.6l-2.419 3.497 2.42 3.226v12.089l-2.904 2.427 2.903 2.2v15.048a3.226 3.226 0 0 1-3.225 3.225H3.419"/><path d="M48.58 3.55V13.6l-2.42 3.497 2.42 3.226v12.089l-2.903 2.427 2.903 2.2v15.048a6.452 6.452 0 0 1-6.451 6.451H8.258"/></g></g></svg>