<svg height="78" width="57" xmlns="http://www.w3.org/2000/svg"><g fill="none" fill-rule="evenodd"><path d="M-9.871-1.71h67.742v69.394H-9.871z"/><g stroke-width="1.613"><path d="M34.765 44.651c7.038-3.917 11.816-11.556 11.816-20.338C46.58 11.538 36.47 1.18 24 1.18S1.42 11.538 1.42 24.313c0 8.95 4.961 16.712 12.22 20.559" stroke="#252528" stroke-linecap="round"/><path d="M31.527 25.277H16.473l7.468 19.276zM18.355 61.901h11.29v.944a4.839 4.839 0 0 1-4.839 4.84h-1.612a4.839 4.839 0 0 1-4.84-4.84z" stroke="#e97d26" stroke-linejoin="round"/><path d="M15.601 56.118a2.891 2.891 0 1 1 0-5.782 2.891 2.891 0 0 1 0-5.783H32.4a2.891 2.891 0 1 1 0 5.783 2.891 2.891 0 1 1 0 5.782 2.891 2.891 0 1 1 0 5.783H15.6a2.891 2.891 0 0 1 0-5.783z" fill="#fff" stroke="#252528" stroke-linecap="round" stroke-linejoin="round"/><path d="M41.876 2.145c6.9 6.542 10.35 13.643 10.35 21.303s-4.077 15.395-12.231 23.207v12.22c-1.255 4.964-2.823 7.714-4.705 8.25-2.822.802 0 5.926-11.29 5.926-3.763.394-6.9-1.534-9.409-5.783" stroke="#8a8a8e" stroke-dasharray=".081 3.226" stroke-linecap="round" stroke-linejoin="round"/><path d="M47.521 2.145c5.646 6.16 8.468 13.07 8.468 20.73S52.226 39.046 44.7 48.408v10.291c-.627 5.082-1.882 7.89-3.764 8.425-2.822.803-4.704 9.703-13.172 9.703-3.763.394-7.84-.726-12.23-3.36" stroke="#8a8a8e" stroke-dasharray=".081 3.226" stroke-linecap="round" stroke-linejoin="round"/></g></g></svg>