<svg height="54" width="63" xmlns="http://www.w3.org/2000/svg"><g fill="none" fill-rule="evenodd"><path d="M53.517 40.43l-.582-35.11c0-.094-.32-.171-.716-.171H27.497a.739.739 0 0 1-.744-.723l-.782-2.885c0-.033-.115-.06-.256-.06H3.158c-.14 0-.255.027-.255.06l-.207 12.526h.019l-.438 26.364z" fill="#fff"/><g stroke-width="1.613"><path d="M53.517 40.43l-.582-35.11c0-.094-.32-.171-.716-.171H27.497a.739.739 0 0 1-.744-.723l-.782-2.885c0-.033-.115-.06-.256-.06H3.158c-.14 0-.255.027-.255.06l-.207 12.526h.019l-.438 26.364z" stroke="#252528"/><path d="M58.697 14.464l-1.392 34.145a.732.732 0 0 1-.729.696l-49.806.411" stroke="#8a8a8e" stroke-dasharray=".081 3.226" stroke-linecap="round" stroke-linejoin="round"/><path d="M61.64 17.368l-1.392 34.145a.732.732 0 0 1-.73.696l-49.805.411" stroke="#8a8a8e" stroke-dasharray=".081 3.226" stroke-linecap="round" stroke-linejoin="round"/></g><path d="M52.785 46.005H3.01c-.404 0-.733-.185-.733-.416L.857 10.754c0-.4.346-.722.772-.722h52.536c.426 0 .773.322.773.722l-1.421 34.835c0 .23-.328.416-.732.416" fill="#fff"/><path d="M52.785 46.005H3.01c-.404 0-.733-.185-.733-.416L.857 10.754c0-.4.346-.722.772-.722h52.536c.426 0 .773.322.773.722l-1.421 34.835c0 .23-.328.416-.732.416z" fill="#fff" stroke="#252528" stroke-width="1.613"/><path d="M4.753 19.284l-.204-5.002c0-.332.288-.6.642-.6h4.899" fill="#fff"/><path d="M4.753 19.284l-.204-5.002c0-.332.288-.6.642-.6h4.899" stroke="#252528" stroke-width="1.613"/><g stroke="#e67e37" stroke-width="1.613"><path d="M16.484 17.322l9.678 10.07-9.678 10.371" stroke-linejoin="round"/><path d="M26.161 37.484h16.13"/></g></g></svg>