<svg height="65" width="54" xmlns="http://www.w3.org/2000/svg"><g fill="none" fill-rule="evenodd"><path d="M27.103 3.239c0 1.04-.857 1.883-1.914 1.883-1.056 0-1.913-.843-1.913-1.883s.857-1.884 1.913-1.884c1.057 0 1.914.843 1.914 1.884" fill="#fff"/><path d="M27.103 3.239c0 1.04-.857 1.883-1.914 1.883-1.056 0-1.913-.843-1.913-1.883s.857-1.884 1.913-1.884c1.057 0 1.914.843 1.914 1.884z" stroke="#252528" stroke-width="1.613"/><path d="M10.68 21.55L23.276 3.24" fill="#fff"/><path d="M10.68 21.55L23.276 3.24" stroke="#252528" stroke-width="1.613"/><path d="M39.699 21.55L27.103 3.24" fill="#fff"/><path d="M39.699 21.55L27.103 3.24" stroke="#252528" stroke-width="1.613"/><path d="M29.343 53.387c-6.89 0-12.475-5.498-12.475-12.279s5.586-12.28 12.475-12.28 12.474 5.499 12.474 12.28m-35.866 0c0 12.717 10.473 23.026 23.392 23.026s23.391-10.31 23.391-23.026-10.472-23.027-23.391-23.027" stroke="#8a8a8e" stroke-dasharray=".081 3.226" stroke-linecap="round" stroke-linejoin="round" stroke-width="1.613"/><path d="M26.771 50.855c-6.89 0-12.474-5.497-12.474-12.279s5.585-12.279 12.474-12.279 12.474 5.498 12.474 12.28m-35.865 0c0 12.716 10.472 23.026 23.391 23.026s23.392-10.31 23.392-23.027S39.69 15.551 26.771 15.551" stroke="#8a8a8e" stroke-dasharray=".081 3.226" stroke-linecap="round" stroke-linejoin="round" stroke-width="1.613"/><path d="M25.19 47.949c-6.585 0-11.923-5.255-11.923-11.736s5.338-11.736 11.923-11.736 11.922 5.254 11.922 11.736-5.338 11.736-11.922 11.736m0-33.744c-12.348 0-22.358 9.854-22.358 22.008 0 12.155 10.01 22.008 22.358 22.008 12.347 0 22.356-9.853 22.356-22.008 0-12.154-10.01-22.008-22.356-22.008" fill="#fff"/><path d="M25.19 47.949c-6.585 0-11.923-5.255-11.923-11.736s5.338-11.736 11.923-11.736 11.922 5.254 11.922 11.736-5.338 11.736-11.922 11.736zm0-33.744c-12.348 0-22.358 9.854-22.358 22.008 0 12.155 10.01 22.008 22.358 22.008 12.347 0 22.356-9.853 22.356-22.008 0-12.154-10.01-22.008-22.356-22.008z" stroke="#252528" stroke-width="1.613"/><path d="M18.393 13.564a24.225 24.225 0 0 1 13.594 0l-4.34 12.824a10.3 10.3 0 0 0-4.919 0z" fill="#fff"/><path d="M18.393 13.564a24.225 24.225 0 0 1 13.594 0l-4.34 12.824a10.3 10.3 0 0 0-4.919 0z" stroke="#e67e37" stroke-linejoin="round" stroke-width="1.613"/><path d="M48.198 29.522a23.156 23.156 0 0 1 0 13.382L35.17 38.633a9.84 9.84 0 0 0 0-4.842z" fill="#fff"/><path d="M48.198 29.522a23.156 23.156 0 0 1 0 13.382L35.17 38.633a9.84 9.84 0 0 0 0-4.842z" stroke="#e67e37" stroke-linejoin="round" stroke-width="1.613"/><path d="M31.986 58.862c-2.21.645-4.492.971-6.796.971s-4.588-.326-6.798-.971l4.339-12.825a10.3 10.3 0 0 0 4.919 0z" fill="#fff"/><path d="M31.986 58.862c-2.21.645-4.492.971-6.796.971s-4.588-.326-6.798-.971l4.339-12.825a10.3 10.3 0 0 0 4.919 0z" stroke="#e67e37" stroke-linejoin="round" stroke-width="1.613"/><path d="M2.181 42.904a23.156 23.156 0 0 1 0-13.382l13.028 4.271a9.84 9.84 0 0 0 0 4.842z" fill="#fff"/><path d="M2.181 42.904a23.156 23.156 0 0 1 0-13.382l13.028 4.271a9.84 9.84 0 0 0 0 4.842z" stroke="#e67e37" stroke-linejoin="round" stroke-width="1.613"/></g></svg>