<svg height="66" width="66" xmlns="http://www.w3.org/2000/svg"><g fill="none" fill-rule="evenodd"><path d="M50.59 41C56.34 41 61 45.475 61 51c0 5.522-4.66 10-10.41 10-1.923 0-3.723-.501-5.268-1.375A10.32 10.32 0 0 1 42 56.649m13.929-51.65a10.186 10.186 0 0 1 5.07 8.834c0 5.615-4.496 10.166-10.043 10.166a9.902 9.902 0 0 1-5.083-1.398A10.121 10.121 0 0 1 43 20.036M18.929 5a10.186 10.186 0 0 1 5.07 8.834C23.999 19.449 19.503 24 13.956 24a9.902 9.902 0 0 1-5.083-1.398A10.121 10.121 0 0 1 6 20.036M18.929 42a10.186 10.186 0 0 1 5.07 8.834C23.999 56.449 19.503 61 13.956 61a9.902 9.902 0 0 1-5.083-1.398A10.121 10.121 0 0 1 6 57.036" stroke="#8a8a8e" stroke-dasharray=".081 3.226" stroke-linecap="round" stroke-linejoin="round" stroke-width="1.613"/><path d="M19.604 2A13.49 13.49 0 0 1 28 14.511C28 21.962 21.998 28 14.595 28a13.29 13.29 0 0 1-6.786-1.852 13.509 13.509 0 0 1-3.81-3.373M56.605 2A13.49 13.49 0 0 1 65 14.512C65 21.962 58.998 28 51.595 28a13.29 13.29 0 0 1-6.786-1.852 13.509 13.509 0 0 1-3.81-3.373M19.605 39A13.49 13.49 0 0 1 28 51.512C28 58.962 21.998 65 14.595 65a13.29 13.29 0 0 1-6.786-1.852 13.509 13.509 0 0 1-3.81-3.373M60.357 42a13.675 13.675 0 0 1 3.08 5.428c.367 1.243.564 2.561.564 3.926C64.001 58.89 57.999 65 50.596 65c-2.476 0-4.796-.683-6.785-1.875A13.559 13.559 0 0 1 40 59.712" stroke="#8a8a8e" stroke-dasharray=".081 3.226" stroke-linecap="round" stroke-linejoin="round" stroke-width="1.613"/><path d="M21 11c0 5.522-4.478 10-10.001 10s-10-4.478-10-10C1 5.475 5.477 1 11 1s10 4.476 10 10" fill="#fff"/><g stroke-width="1.613"><path d="M21 11c0 5.522-4.478 10-10.001 10s-10-4.478-10-10C1 5.475 5.477 1 11 1s10 4.476 10 10z" stroke="#252528"/><path d="M11 1c5.523 0 10 4.476 10 10 0 5.522-4.477 10-10 10" stroke="#e67e37"/><path d="M14 11.5a2.5 2.5 0 1 1-5 0 2.5 2.5 0 0 1 5 0z" stroke="#e67e37"/></g><path d="M21 48c0 5.522-4.478 10-10.001 10s-10-4.478-10-10c0-4.735 3.29-8.702 7.71-9.738A10.042 10.042 0 0 1 11 38a9.96 9.96 0 0 1 5.336 1.54 10.083 10.083 0 0 1 2.719 2.53A9.962 9.962 0 0 1 21 48" fill="#fff"/><path d="M21 48c0 5.522-4.478 10-10.001 10s-10-4.478-10-10c0-4.735 3.29-8.702 7.71-9.738A10.042 10.042 0 0 1 11 38a9.96 9.96 0 0 1 5.336 1.54 10.083 10.083 0 0 1 2.719 2.53A9.962 9.962 0 0 1 21 48z" stroke="#252528" stroke-width="1.613"/><path d="M48 2c5.523 0 10 4.476 10 10 0 5.522-4.477 10-10 10s-10-4.478-10-10" stroke="#e67e37" stroke-width="1.613"/><path d="M51 11.5a2.5 2.5 0 1 1-5 0 2.5 2.5 0 0 1 5 0z" stroke="#e67e37" stroke-width="1.613"/><path d="M59 48c0-5.524-4.478-10-10-10v10z" fill="#fff"/><path d="M59 48c0-5.524-4.478-10-10-10v10z" stroke="#e67e37" stroke-width="1.613"/><path d="M56 50.5a8.5 8.5 0 1 1-8.5-8.5" stroke="#252528" stroke-width="1.613"/><path d="M11.5 42A6.5 6.5 0 1 1 5 48.5" stroke="#e67e37" stroke-width="1.613"/><path d="M14 48.5a2.5 2.5 0 1 1-5 0 2.5 2.5 0 0 1 5 0" fill="#fff"/><path d="M14 48.5a2.5 2.5 0 1 1-5 0 2.5 2.5 0 0 1 5 0z" stroke="#e67e37" stroke-width="1.613"/></g></svg>