<svg height="68" width="78" xmlns="http://www.w3.org/2000/svg"><g fill="none" fill-rule="evenodd" stroke-linecap="round" stroke-width="1.613"><path d="M5.506 58c.337-.444 7.927-10.674.02-20.286-8.782-10.678-2.091-23.133-2.022-23.258l.027-.046C8.689 6.22 15.969 1.601 24.583 1.057c9.204-.583 16.369 3.481 18.346 4.74 5.21 3.318 7.44 7.848 7.65 8.293.159.296 1.421 2.72 1.421 4.661m-2.566 28.311c-1.917 1.704-2.754 4.32-2.51 7.848.168 2.448-1.074 4.54-3.408 5.737-3.029 1.555-8.125 1.589-12.982-1.657-1.139 1.867-2.97 5.29-2.97 7.287" stroke="#252528"/><path d="M24.289 25.321h18.105l.279.37c.044.058.459 5.85 4.645 6.278 1.807.184 3.474-.453 4.69-1.792 1.656-1.823 2.303-4.706 1.853-8.177H17.405C13.873 22 11 24.935 11 28.544" stroke="#e67e37" stroke-linejoin="round"/><path d="M52.381 33l2.41 7.113c.123.36.209.486.209.99-.023.495-.878.897-1.364.897H50" stroke="#252528"/><g stroke-linejoin="round"><path d="M73 13l-16 9m0 6l17 9z" stroke="#8a8a8e" stroke-dasharray=".081 3.226"/><path d="M76.362 40.97V7.336" stroke="#e67e37"/></g></g></svg>